<svg width="25" height="25" viewBox="0 0 25 25" fill="none" xmlns="http://www.w3.org/2000/svg">
<path d="M18.9349 5.76917H17.1182C17.0591 4.72917 16.5778 3.75003 15.7733 3.03347C14.9688 2.3169 13.9024 1.91748 12.7938 1.91748C11.6851 1.91748 10.6187 2.3169 9.81421 3.03347C9.0097 3.75003 8.52836 4.72917 8.46934 5.76917H6.65257C5.97393 5.76917 5.32308 6.02243 4.84321 6.47324C4.36334 6.92405 4.09375 7.53547 4.09375 8.17301V18.7499C4.09375 19.3875 4.36334 19.9989 4.84321 20.4497C5.32308 20.9005 5.97393 21.1538 6.65257 21.1538H18.9349C19.6136 21.1538 20.2644 20.9005 20.7443 20.4497C21.2242 19.9989 21.4938 19.3875 21.4938 18.7499V8.17301C21.4938 7.53547 21.2242 6.92405 20.7443 6.47324C20.2644 6.02243 19.6136 5.76917 18.9349 5.76917ZM12.7938 2.88455C13.6293 2.88715 14.4331 3.18552 15.0449 3.72016C15.6567 4.25481 16.0316 4.98644 16.0946 5.76917H9.49287C9.55595 4.98644 9.93076 4.25481 10.5426 3.72016C11.1544 3.18552 11.9582 2.88715 12.7938 2.88455ZM20.4702 18.7499C20.4702 19.1325 20.3085 19.4993 20.0205 19.7698C19.7326 20.0403 19.3421 20.1922 18.9349 20.1922H6.65257C6.24539 20.1922 5.85488 20.0403 5.56696 19.7698C5.27903 19.4993 5.11728 19.1325 5.11728 18.7499V8.17301C5.11728 7.79049 5.27903 7.42363 5.56696 7.15315C5.85488 6.88266 6.24539 6.73071 6.65257 6.73071H18.9349C19.3421 6.73071 19.7326 6.88266 20.0205 7.15315C20.3085 7.42363 20.4702 7.79049 20.4702 8.17301V18.7499Z" fill="#1D1D1F"/>
<path d="M14.7388 12.9307C14.7414 12.6756 14.8119 12.4252 14.9438 12.2022C15.0758 11.9791 15.2649 11.7906 15.4941 11.6538C15.3374 11.4427 15.1271 11.2717 14.8822 11.1564C14.6374 11.041 14.3657 10.9849 14.0919 10.9932C13.5597 10.9932 13.1288 11.298 12.8432 11.298C12.5576 11.298 12.1646 11.0096 11.6876 11.0096C11.4293 11.024 11.1768 11.0876 10.9455 11.1968C10.7142 11.3059 10.509 11.4581 10.3424 11.6442C10.1759 11.8303 10.0514 12.0463 9.97668 12.2791C9.90193 12.5118 9.87846 12.7565 9.9077 12.998C9.92597 13.7862 10.1826 14.5533 10.6477 15.2096C11.0019 15.6817 11.311 16.0586 11.7572 16.0586C12.2035 16.0586 12.3887 15.7826 12.9281 15.7826C13.4911 15.7826 13.6067 16.0509 14.0919 16.0509C14.577 16.0509 14.9015 15.6375 15.2014 15.2307C15.4195 14.9419 15.5835 14.6203 15.6866 14.2798C15.4045 14.1678 15.164 13.98 14.9954 13.74C14.8267 13.4999 14.7374 13.2183 14.7388 12.9307ZM12.879 10.9201C13.0659 10.9058 13.2478 10.8558 13.4134 10.7731C13.579 10.6904 13.7249 10.5769 13.8422 10.4394C14.0732 10.1747 14.2032 9.84502 14.2116 9.50284C14.2133 9.45911 14.2105 9.41533 14.2035 9.37207C13.799 9.40547 13.4251 9.58801 13.1636 9.87976C12.9274 10.1317 12.7889 10.4512 12.7705 10.7865C12.7705 10.8375 12.7787 10.8884 12.7787 10.9096C12.8094 10.9134 12.8401 10.9201 12.879 10.9201Z" fill="#1D1D1F"/>
</svg>
