<svg width="12" height="12" viewBox="0 0 12 12" fill="none" xmlns="http://www.w3.org/2000/svg">
<path d="M6.25808 3.11914C6.15064 3.11914 6.05867 3.15657 5.98217 3.23145C5.90567 3.30632 5.86742 3.39746 5.86742 3.50488V6.2295C5.86742 6.2881 5.87719 6.34262 5.89673 6.39305C5.91626 6.44352 5.94556 6.4948 5.98462 6.5469L7.19067 8.13865C7.27207 8.24282 7.36566 8.30387 7.47143 8.3218C7.57723 8.3397 7.67896 8.31447 7.77663 8.2461C7.86776 8.18423 7.91739 8.10042 7.92553 7.99465C7.93369 7.88885 7.90034 7.78712 7.82548 7.68945L6.19947 5.49707L6.64383 6.86425V3.50488C6.64383 3.39746 6.60639 3.30632 6.53153 3.23145C6.45666 3.15657 6.36551 3.11914 6.25808 3.11914ZM6.44362 10.9609C7.12396 10.9609 7.76443 10.8307 8.36503 10.5703C8.96559 10.3099 9.49538 9.9502 9.95438 9.4912C10.4133 9.03223 10.773 8.50245 11.0335 7.90185C11.2939 7.30128 11.4241 6.66082 11.4241 5.98047C11.4241 5.30013 11.2939 4.65967 11.0335 4.05908C10.773 3.4585 10.4133 2.92871 9.95438 2.46973C9.49538 2.01074 8.96559 1.65104 8.36503 1.39062C7.76443 1.13021 7.12396 1 6.44362 1C5.76328 1 5.12282 1.13021 4.52223 1.39062C3.92164 1.65104 3.39186 2.00993 2.93287 2.46729C2.47389 2.92464 2.11419 3.45361 1.85378 4.0542C1.59336 4.65479 1.46315 5.29525 1.46315 5.97558H2.29323C2.29323 5.39942 2.39983 4.86068 2.61305 4.35938C2.82627 3.85807 3.1233 3.41862 3.50416 3.04101C3.88502 2.66341 4.3261 2.368 4.8274 2.15479C5.32872 1.94157 5.86746 1.83496 6.44362 1.83496C7.01979 1.83496 7.55853 1.94157 8.05982 2.15479C8.56112 2.368 9.00139 2.66422 9.38062 3.04345C9.75986 3.42269 10.0569 3.86296 10.2717 4.36426C10.4866 4.86556 10.594 5.4043 10.594 5.98047C10.594 6.55666 10.4866 7.0962 10.2717 7.5991C10.0569 8.10203 9.75986 8.54312 9.38062 8.92235C9.00139 9.30158 8.56112 9.59863 8.05982 9.8135C7.55853 10.0283 7.01979 10.1341 6.44362 10.1308C5.97813 10.1276 5.53704 10.0552 5.12038 9.91355C4.70371 9.77195 4.32203 9.57258 3.97535 9.31545C3.62867 9.05828 3.33164 8.75717 3.08424 8.4121C3.00937 8.3112 2.91904 8.24692 2.81325 8.21925C2.70745 8.19158 2.60247 8.20867 2.4983 8.2705C2.40065 8.33237 2.34124 8.42188 2.32008 8.53905C2.29892 8.65625 2.33066 8.76857 2.4153 8.876C2.72454 9.2894 3.0875 9.65317 3.50416 9.9673C3.92083 10.2814 4.37819 10.5256 4.87624 10.6997C5.3743 10.8739 5.89676 10.9609 6.44362 10.9609ZM0.862561 5.03808C0.745374 5.03808 0.657484 5.06168 0.59889 5.10888C0.540296 5.15609 0.512627 5.21875 0.515882 5.29688C0.519137 5.375 0.551689 5.45963 0.613538 5.55078L1.70729 7.1035C1.78867 7.21743 1.88144 7.27358 1.98561 7.27195C2.08978 7.27035 2.18092 7.2142 2.25905 7.1035L3.35279 5.5459C3.41464 5.45475 3.44638 5.37093 3.44801 5.29444C3.44964 5.21794 3.42115 5.15609 3.36256 5.10888C3.30397 5.06168 3.21771 5.03808 3.10378 5.03808H0.862561Z" fill="#FF9F0A"/>
</svg>
